<svg viewBox="1424.15 1005.63 2151.69 988.75" xmlns="http://www.w3.org/2000/svg" width="100" height="45.95" preserveAspectRatio="xMidYMid meet" style="position: absolute;">
    <path d="M1424.15,1806.1c217.56-127.57,454.98-217.19,700-262.73l-69.38-83.48C1820.96,1524.57,1602.32,1640.22,1424.15,1806.1z" fill="red"></path>
    <path d="M3079.66,1503.25c-44.09-16.62-88.54-31.44-134.08-43.73l-68.66,82.4c59.26,10.84,118.17,24.57,176.36,41.56   c180.69,50.96,354.88,127.21,522.56,222.62C3434.9,1673.83,3263.61,1571.56,3079.66,1503.25z" fill="red"></path>
    <path d="M2770.32,1420.86c-178.17-28.91-361.75-28.55-539.91,1.09c-106.61-143.83-216.83-284.41-332.12-416.32   c74.45,146.36,156.84,290.19,243.94,432.58c18.43,30.72,37.59,61.44,56.74,92.15c97.93,157.2,200.21,311.88,301.04,464.02   c101.55-152.5,203.82-307.54,302.48-465.46c18.79-30.36,37.59-60.71,56.38-91.07c86.37-142.02,168.76-286.22,242.85-432.22   C2986.79,1137.17,2876.93,1277.39,2770.32,1420.86z M2500.36,1800.67c-65.05-94.32-131.55-189.37-200.21-283.33   c132.99-13.37,267.06-14.09,400.41-1.09C2631.9,1610.58,2565.05,1705.99,2500.36,1800.67z" fill="red"></path>
</svg>
